<svg xmlns="http://www.w3.org/2000/svg" width="24" height="26" fill="none" viewBox="0 0 24 26"><path fill="#000" fill-rule="evenodd" d="M8 7.792c0-1.105.421-2.165 1.172-2.947A3.92 3.92 0 0 1 12 3.625a3.92 3.92 0 0 1 2.828 1.22A4.26 4.26 0 0 1 16 7.791a4.26 4.26 0 0 1-1.172 2.946A3.92 3.92 0 0 1 12 11.958a3.92 3.92 0 0 1-2.828-1.22A4.26 4.26 0 0 1 8 7.792m0 6.25a4.9 4.9 0 0 0-3.536 1.525A5.32 5.32 0 0 0 3 19.25c0 .829.316 1.624.879 2.21A2.94 2.94 0 0 0 6 22.375h12a2.94 2.94 0 0 0 2.121-.915c.563-.586.879-1.381.879-2.21a5.32 5.32 0 0 0-1.465-3.683A4.9 4.9 0 0 0 16 14.042Z" clip-rule="evenodd"/></svg>